<svg width="70" height="80" viewBox="0 0 70 80" fill="none" xmlns="http://www.w3.org/2000/svg"><path d="M62.224 40.54L43.75 58.05 70 79.999V33.172l-7.776 7.37z" fill="#AE213E"/><path d="M0 33.17V80l26.25-21.951L0 33.17z" fill="#F7375E"/><path d="M26.25 58.049L0 80h35V66.341l-8.75-8.292z" fill="#AE213E"/><path d="M35 66.341v13.66h35L43.75 58.048 35 66.34z" fill="#87172E"/><path d="M7.776 25.8L0 33.17h7.776V25.8zM70 33.17l-7.777-7.37v7.37H70zM35 0L22.597 11.755l24.775-.03L35 0z" fill="#F7375E"/><path d="M62.224 40.54L70 33.17h-7.776v7.37zM35 66.341L7.775 40.54v-7.368H0L26.25 58.05 35 66.34z" fill="#87172E"/><path d="M7.775 40.54L35 66.34l8.75-8.292L62.224 40.54V25.8l-.002-14.093-14.85.018-24.775.03-14.82.017v14.029l-.001 7.37-.001 7.368zm9.725-5.418h35v5.854h-35v-5.854zm0-5.854v-5.853h35v5.853h-35z" fill="#FFE8BC"/><path d="M52.5 23.415h-35v5.854h35v-5.854zm0 11.707h-35v5.854h35v-5.854z" fill="#fff"/></svg>